<svg xmlns="http://www.w3.org/2000/svg" viewBox="0 0 580 160" width="580" height="160" role="img" aria-label="Chessco">
  <title>Chessco</title>
  <g transform="translate(30, 30) scale(0.39)">
    <rect x="0" y="0" width="32" height="32" fill="#2A1F05"/>
    <rect x="32" y="0" width="32" height="32" fill="#14100A"/>
    <rect x="64" y="0" width="32" height="32" fill="#EAB308"/>
    <rect x="96" y="0" width="32" height="32" fill="#5C4506"/>
    <rect x="128" y="0" width="32" height="32" fill="#EAB308"/>
    <rect x="160" y="0" width="32" height="32" fill="#5C4506"/>
    <rect x="192" y="0" width="32" height="32" fill="#EAB308"/>
    <rect x="224" y="0" width="32" height="32" fill="#14100A"/>
    <rect x="0" y="32" width="32" height="32" fill="#14100A"/>
    <rect x="32" y="32" width="32" height="32" fill="#EAB308"/>
    <rect x="64" y="32" width="32" height="32" fill="#5C4506"/>
    <rect x="96" y="32" width="32" height="32" fill="#EAB308"/>
    <rect x="128" y="32" width="32" height="32" fill="#5C4506"/>
    <rect x="160" y="32" width="32" height="32" fill="#EAB308"/>
    <rect x="192" y="32" width="32" height="32" fill="#5C4506"/>
    <rect x="224" y="32" width="32" height="32" fill="#2A1F05"/>
    <rect x="0" y="64" width="32" height="32" fill="#2A1F05"/>
    <rect x="32" y="64" width="32" height="32" fill="#5C4506"/>
    <rect x="64" y="64" width="32" height="32" fill="#EAB308"/>
    <rect x="96" y="64" width="32" height="32" fill="#14100A"/>
    <rect x="128" y="64" width="32" height="32" fill="#2A1F05"/>
    <rect x="160" y="64" width="32" height="32" fill="#14100A"/>
    <rect x="192" y="64" width="32" height="32" fill="#2A1F05"/>
    <rect x="224" y="64" width="32" height="32" fill="#14100A"/>
    <rect x="0" y="96" width="32" height="32" fill="#14100A"/>
    <rect x="32" y="96" width="32" height="32" fill="#EAB308"/>
    <rect x="64" y="96" width="32" height="32" fill="#5C4506"/>
    <rect x="96" y="96" width="32" height="32" fill="#2A1F05"/>
    <rect x="128" y="96" width="32" height="32" fill="#14100A"/>
    <rect x="160" y="96" width="32" height="32" fill="#2A1F05"/>
    <rect x="192" y="96" width="32" height="32" fill="#14100A"/>
    <rect x="224" y="96" width="32" height="32" fill="#2A1F05"/>
    <rect x="0" y="128" width="32" height="32" fill="#2A1F05"/>
    <rect x="32" y="128" width="32" height="32" fill="#5C4506"/>
    <rect x="64" y="128" width="32" height="32" fill="#EAB308"/>
    <rect x="96" y="128" width="32" height="32" fill="#14100A"/>
    <rect x="128" y="128" width="32" height="32" fill="#2A1F05"/>
    <rect x="160" y="128" width="32" height="32" fill="#14100A"/>
    <rect x="192" y="128" width="32" height="32" fill="#2A1F05"/>
    <rect x="224" y="128" width="32" height="32" fill="#14100A"/>
    <rect x="0" y="160" width="32" height="32" fill="#14100A"/>
    <rect x="32" y="160" width="32" height="32" fill="#EAB308"/>
    <rect x="64" y="160" width="32" height="32" fill="#5C4506"/>
    <rect x="96" y="160" width="32" height="32" fill="#2A1F05"/>
    <rect x="128" y="160" width="32" height="32" fill="#14100A"/>
    <rect x="160" y="160" width="32" height="32" fill="#2A1F05"/>
    <rect x="192" y="160" width="32" height="32" fill="#14100A"/>
    <rect x="224" y="160" width="32" height="32" fill="#2A1F05"/>
    <rect x="0" y="192" width="32" height="32" fill="#2A1F05"/>
    <rect x="32" y="192" width="32" height="32" fill="#5C4506"/>
    <rect x="64" y="192" width="32" height="32" fill="#EAB308"/>
    <rect x="96" y="192" width="32" height="32" fill="#5C4506"/>
    <rect x="128" y="192" width="32" height="32" fill="#EAB308"/>
    <rect x="160" y="192" width="32" height="32" fill="#5C4506"/>
    <rect x="192" y="192" width="32" height="32" fill="#EAB308"/>
    <rect x="224" y="192" width="32" height="32" fill="#14100A"/>
    <rect x="0" y="224" width="32" height="32" fill="#14100A"/>
    <rect x="32" y="224" width="32" height="32" fill="#2A1F05"/>
    <rect x="64" y="224" width="32" height="32" fill="#5C4506"/>
    <rect x="96" y="224" width="32" height="32" fill="#EAB308"/>
    <rect x="128" y="224" width="32" height="32" fill="#5C4506"/>
    <rect x="160" y="224" width="32" height="32" fill="#EAB308"/>
    <rect x="192" y="224" width="32" height="32" fill="#5C4506"/>
    <rect x="224" y="224" width="32" height="32" fill="#2A1F05"/>
  </g>
  <text x="160" y="100" fill="#EAB308" font-family="ui-sans-serif, system-ui, -apple-system, BlinkMacSystemFont, sans-serif" font-size="56" font-weight="500" letter-spacing="5">CHESSCO</text>
</svg>
